<svg id="visual" viewBox="0 0 900 900" width="900" height="900" xmlns="http://www.w3.org/2000/svg" xmlns:xlink="http://www.w3.org/1999/xlink" version="1.1"><rect x="0" y="0" width="900" height="900" fill="#eaf4f4"></rect><defs><linearGradient id="grad1_0" x1="0%" y1="0%" x2="100%" y2="100%"><stop offset="30%" stop-color="#eaf4f4" stop-opacity="1"></stop><stop offset="70%" stop-color="#eaf4f4" stop-opacity="1"></stop></linearGradient></defs><defs><linearGradient id="grad2_0" x1="0%" y1="0%" x2="100%" y2="100%"><stop offset="30%" stop-color="#eaf4f4" stop-opacity="1"></stop><stop offset="70%" stop-color="#eaf4f4" stop-opacity="1"></stop></linearGradient></defs><g transform="translate(900, 0)"><path d="M0 572.8C-62.2 527.3 -124.4 481.9 -187.5 452.7C-250.6 423.5 -314.6 410.7 -376.2 376.2C-437.7 341.7 -496.8 285.5 -529.2 219.2C-561.5 152.9 -567.1 76.4 -572.8 0L0 0Z" fill="#da1e37"></path></g><g transform="translate(0, 900)"><path d="M0 -572.8C63.5 -535.8 127 -498.9 197.1 -475.8C267.2 -452.7 343.9 -443.3 403.1 -403.1C462.2 -362.8 503.8 -291.5 529.2 -219.2C554.5 -146.9 563.6 -73.4 572.8 0L0 0Z" fill="#da1e37"></path></g></svg>