<svg id="visual" viewBox="0 0 900 900" width="900" height="900" xmlns="http://www.w3.org/2000/svg" xmlns:xlink="http://www.w3.org/1999/xlink" version="1.1"><rect x="0" y="0" width="900" height="900" fill="#eaf4f4"></rect><defs><linearGradient id="grad1_0" x1="0%" y1="100%" x2="100%" y2="0%"><stop offset="30%" stop-color="#eaf4f4" stop-opacity="1"></stop><stop offset="70%" stop-color="#eaf4f4" stop-opacity="1"></stop></linearGradient></defs><defs><linearGradient id="grad2_0" x1="0%" y1="100%" x2="100%" y2="0%"><stop offset="30%" stop-color="#eaf4f4" stop-opacity="1"></stop><stop offset="70%" stop-color="#eaf4f4" stop-opacity="1"></stop></linearGradient></defs><g transform="translate(900, 900)"><path d="M-572.8 0C-527.3 -62.2 -481.9 -124.4 -452.7 -187.5C-423.5 -250.6 -410.7 -314.6 -376.2 -376.2C-341.7 -437.7 -285.5 -496.8 -219.2 -529.2C-152.9 -561.5 -76.4 -567.1 0 -572.8L0 0Z" fill="#da1e37"></path></g><g transform="translate(0, 0)"><path d="M572.8 0C535.8 63.5 498.9 127 475.8 197.1C452.7 267.2 443.3 343.9 403.1 403.1C362.8 462.2 291.5 503.8 219.2 529.2C146.9 554.5 73.4 563.6 0 572.8L0 0Z" fill="#da1e37"></path></g></svg>